<?xml version='1.0' encoding='utf-8'?>
<svg xmlns="http://www.w3.org/2000/svg" version="1.1" width="600px" height="976px" viewBox="0 0 600 976"> <g id="layer1"> <g style="fill:rgb(0,0,0); fill-opacity:1.0; stroke-linejoin: miter"> <path d="M411.7177,355.324C411.33548,355.53635,410.8541,355.8903,410.6276,356.08853C410.41522,356.3008,410.07544,356.45657,409.86307,356.45657C409.3534,356.45657,408.03674,357.2211,407.6828,357.71658C407.52707,357.929,407.35718,358.26877,407.3147,358.46695C407.2581,358.6652,406.9466,359.0474,406.62097,359.3306C405.7432,360.05264,405.12027,361.05777,405.12027,361.70908C405.12027,362.00638,405.00702,362.45938,404.86545,362.71426C404.738,362.9691,404.49734,363.53543,404.35577,363.9601C404.21417,364.38486,404.03015,364.79544,403.9735,364.86624C403.9027,364.9512,403.8461,365.27676,403.8461,365.5883C403.8461,366.05545,403.9452,366.29617,404.3416,366.76334L404.8513,367.34378L404.53983,367.9384C404.38406,368.26407,404.21417,368.6746,404.20004,368.83035C404.17172,369.00027,404.016,369.4816,403.86026,369.92044C403.59125,370.6425,403.5771,370.75577,403.76114,371.27963C404.016,371.98746,404.5681,372.59628,404.96454,372.59628C405.48837,372.59628,405.82816,372.86526,405.82816,373.27585C405.84232,373.4882,405.92725,373.81387,406.04053,374.012C406.32367,374.5076,406.29535,374.69162,405.9414,374.80484C405.276,375.00308,404.32745,375.47025,403.9452,375.79593C403.71866,375.97995,403.39304,376.13565,403.20898,376.13565C402.58606,376.13565,401.2411,378.93887,401.15613,380.45377C401.05704,382.1102,401.11368,383.86575,401.35434,386.18756C401.7366,390.01013,401.5667,391.70905,400.41995,395.2484C399.71207,397.4995,398.8626,400.79822,398.67856,402.08655C398.4945,403.41736,399.08914,404.59247,400.50488,405.71094C400.7031,405.86664,400.74557,406.03656,400.67477,406.56036C400.61816,406.9143,400.57568,407.3957,400.57568,407.63635C400.57568,409.2362,400.61816,409.63257,400.85883,409.9016C401.12784,410.19885,401.77908,412.08185,401.94897,412.9879C401.99142,413.27112,402.09055,413.55426,402.16132,413.59668C402.23212,413.63916,402.28876,414.2904,402.2746,415.04077C402.2746,416.59814,402.402,417.9856,402.60022,418.3678C402.68515,418.53772,402.61438,418.96246,402.3737,419.727C402.17548,420.3499,401.87817,421.38342,401.72244,422.03467C401.55255,422.6859,401.29773,423.6203,401.15613,424.13C400.7314,425.55994,399.58466,429.66565,399.44305,430.28857C399.30148,430.8407,397.94235,435.4419,397.27695,437.5797C397.0929,438.16016,396.8664,438.89636,396.78143,439.2079C396.0594,441.7704,395.69128,443.1012,395.3515,444.44617C394.54453,447.58917,393.51102,451.4259,393.0155,453.06818C392.74652,454.00256,392.52,454.89453,392.52,455.0644C392.52,455.23425,392.3501,455.84308,392.1519,456.42352C391.95367,457.00397,391.67053,458.07996,391.52896,458.81616C391.37323,459.55237,391.10422,460.64246,390.90604,461.22296C390.70782,461.8034,390.5096,462.5396,390.45297,462.8369C390.39636,463.14838,390.26892,463.55896,390.16983,463.7572C390.05658,463.95538,389.97162,464.26685,389.97162,464.43677C389.97162,464.60663,389.91498,464.79065,389.83005,464.83313C389.75925,464.8756,389.68848,465.1305,389.68848,465.37115C389.68848,465.62598,389.56104,466.23474,389.4053,466.74445C389.24957,467.2541,389.12216,467.80627,389.12216,467.9903C389.12216,468.17432,389.0089,468.51416,388.88147,468.76898C388.75406,469.0238,388.6125,469.47687,388.57,469.7883C388.49924,470.28378,388.42844,470.35458,388.06033,470.42538C387.72055,470.48203,387.6073,470.6094,387.4091,471.17575C387.26752,471.55798,387.0693,471.99686,386.9419,472.16678C386.8286,472.33664,386.5313,472.76138,386.29065,473.10117C385.61108,474.0497,385.696,474.10635,387.9046,474.10635C389.4053,474.10635,389.92914,474.0497,390.3114,473.8657C390.80692,473.63916,390.83524,473.63916,391.82626,474.07803C392.60495,474.43198,393.04382,474.5311,393.70923,474.5311C394.37463,474.5311,394.70026,474.61603,395.13916,474.88504C395.45062,475.06906,395.90366,475.33807,396.1302,475.47964C396.48413,475.69202,396.83807,475.73447,398.1972,475.70618C399.7687,475.67786,399.88196,475.6637,400.54736,475.25314C400.9438,475.01245,401.35434,474.81424,401.48175,474.81424C401.87817,474.81424,402.1472,474.98413,402.1472,475.23898C402.1472,475.38052,402.26044,475.63538,402.41617,475.81943C402.671,476.1309,402.6993,476.1309,403.50632,475.94687C403.9735,475.84775,404.5115,475.63538,404.72385,475.4938C404.99286,475.30975,405.36096,475.23898,406.09714,475.23898C407.10233,475.23898,407.1165,475.23898,407.7536,475.8619C408.2491,476.3291,408.61722,476.5273,409.28262,476.71136C410.76917,477.0936,411.7885,477.02283,413.61484,476.41403C414.50677,476.11673,414.78992,475.9327,415.3987,475.2956C416.09244,474.54526,416.12076,474.5311,416.91357,474.5311C417.81967,474.5311,418.57,474.84256,419.12216,475.43716C419.4053,475.73447,419.60352,475.80527,420.16983,475.80527C421.03345,475.80527,421.79794,475.45132,421.91122,475.01245C422.02448,474.55942,422.77484,474.3329,424.10565,474.36118C425.11084,474.37534,425.19577,474.36118,425.56387,473.97894C425.93198,473.59668,425.97446,473.58255,427.0929,473.65332C428.21136,473.7241,428.23965,473.70993,428.15472,473.41263C428.05563,473.00204,428.39542,472.69058,428.99002,472.69058C429.91028,472.69058,430.58984,472.2942,430.97208,471.54382C431.34018,470.80765,431.52423,470.73685,432.13303,471.0483C432.34537,471.1616,432.78427,471.28897,433.08157,471.3456C433.39304,471.40225,434.016,471.57214,434.46902,471.72787C435.16275,471.96854,435.545,471.99686,437.0174,471.94025C438.77295,471.86948,440.11792,471.67123,440.41522,471.44473C440.59927,471.30313,442.85034,471.44473,444.33688,471.6854C444.8324,471.7562,445.2713,471.79868,445.31375,471.77036C445.3987,471.67123,445.0306,471.27484,444.8324,471.27484C444.74747,471.27484,444.37936,471.0908,444.03958,470.85013C443.6998,470.62357,443.31754,470.42538,443.19012,470.42538C443.06268,470.42538,442.85034,470.29794,442.70877,470.14224C442.56717,469.98648,442.39728,469.85907,442.34067,469.85907C442.28403,469.85907,441.57614,469.5476,440.76917,469.1654C439.3534,468.5,439.2543,468.47168,437.612,468.38672C436.49356,468.31592,435.79984,468.20264,435.58746,468.07526C435.4034,467.9478,435.1486,467.8346,435.02118,467.80627C433.74698,467.5089,433.18066,467.2824,432.89752,466.92847C432.21796,466.12146,430.20758,461.6902,429.89612,460.30273C429.797,459.9063,429.61295,459.11346,429.47137,458.53302C429.3298,457.9525,429.1599,456.9898,429.11743,456.40936C429.06082,455.82892,428.94754,455.0927,428.87677,454.78125C428.7352,454.2574,428.63608,452.2187,428.62192,449.6845C428.60776,448.1413,428.5936,445.93274,428.57944,443.38434C428.57944,442.096,428.63608,440.08563,428.70688,438.92468C428.80597,437.56555,428.80597,435.61182,428.72104,433.474C428.5653,429.2975,428.45203,424.80957,428.4662,423.42212C428.48035,422.84167,428.48035,422.2895,428.48035,422.2187C428.4662,422.1338,428.40955,419.75525,428.33878,416.9096C428.15472,409.5193,427.97067,407.15503,427.34775,403.60144C427.0929,402.12903,427.07874,402.1432,427.64505,401.88837C427.91403,401.74683,428.77765,400.9823,429.528,400.18945L430.91547,398.7312L431.59503,398.97192C432.34537,399.2409,433.2373,399.28333,433.7753,399.07098C434.29913,398.8728,435.09195,397.59863,435.48837,396.31024C436.26703,393.73358,436.49356,392.40277,436.62097,389.5854C436.70593,387.78735,436.49356,387.40515,433.52045,383.9224C432.68515,382.94547,431.7366,381.79874,431.41098,381.374C431.09952,380.94925,430.22174,380.01486,429.48553,379.29288C428.7352,378.57083,428.08392,377.9337,428.0273,377.8771C427.9565,377.82047,427.5601,377.39572,427.13538,376.94266C426.6965,376.4755,426.18683,375.86673,425.98862,375.56937C425.47894,374.79068,424.81354,374.47928,424.10565,374.6633C423.6809,374.77652,423.44025,374.77652,423.11462,374.63498C422.8881,374.53586,422.37842,374.40848,422.0103,374.35184C420.87772,374.19608,420.75027,374.09695,420.63702,373.43155C420.5521,372.90775,420.58038,372.7803,420.93433,372.42642C421.13254,372.21402,421.42984,372.02994,421.55728,372.02994C421.69885,372.02994,421.982,371.87424,422.20853,371.69022C422.56247,371.39285,422.5908,371.27963,422.56247,370.52927C422.5483,370.09036,422.46335,369.63736,422.39258,369.5524C422.30762,369.43912,422.32178,369.29752,422.46335,369.1135C422.76068,368.71707,422.7182,368.49057,422.29346,368.0375C422.0103,367.7402,421.96783,367.61282,422.08112,367.45706C422.16605,367.35794,422.26517,366.73502,422.29346,366.09793C422.3501,364.99362,422.46335,364.68216,422.85977,364.668C422.9164,364.668,422.95886,364.54056,422.95886,364.39902C422.95886,364.24332,423.02966,364.0734,423.10046,364.0309C423.1854,363.98843,423.24203,363.7902,423.24203,363.59207C423.24203,363.18143,422.40674,361.55338,422.1519,361.45425C422.0528,361.41177,421.96783,361.2985,421.96783,361.19937C421.96783,361.0861,421.78378,360.8738,421.55728,360.71805C421.33075,360.54813,420.9485,360.02432,420.722,359.52878C420.4813,359.0474,420.09903,358.42447,419.85837,358.15555C419.61768,357.8865,419.41946,357.57504,419.41946,357.47598C419.41946,357.39102,419.36285,357.30606,419.29205,357.30606C419.2354,357.30606,418.9381,357.1503,418.65497,356.95212C418.3718,356.75394,417.86212,356.5557,417.5365,356.5132C417.21088,356.45657,416.68704,356.3008,416.38974,356.15927C416.07828,356.00357,415.75266,355.8903,415.65353,355.8903C415.55444,355.8903,415.2996,355.80533,415.0731,355.69205C414.86072,355.57883,414.52094,355.42313,414.32272,355.35233C414.1245,355.28152,413.78473,355.13992,413.5724,355.05496C412.97775,354.8143,412.48224,354.8851,411.7177,355.324 Z M424.48788,383.65335C425.19577,384.12054,426.11603,384.8709,426.5266,385.32397C427.14954,385.98938,427.34775,386.34326,427.67337,387.36267C427.89987,388.04224,428.22552,388.77844,428.4237,389.00494C428.74933,389.40137,428.8343,389.4297,429.47137,389.34473C430.4058,389.23145,430.4624,389.44385,429.88196,390.59058C429.35812,391.63824,428.99002,392.1621,427.9565,393.323C426.96548,394.4273,426.96548,395.0927,427.97067,395.44666C428.31046,395.55994,428.21136,396.08374,427.60257,397.4004C427.07874,398.54718,426.90884,398.58966,425.87534,397.82513C425.1816,397.30127,424.4171,396.81995,423.1854,396.12622C422.33594,395.64484,421.72717,395.00775,421.16086,393.9884C420.7361,393.23804,420.63702,392.91248,420.58038,392.03467C420.52377,391.11438,420.5521,390.93036,420.82108,390.57642C420.9768,390.3499,421.11838,390.01013,421.11838,389.8119C421.11838,389.47217,421.9395,387.63165,422.2793,387.19275C423.04382,386.25836,423.24203,385.12573,422.90225,383.79495C422.61908,382.7048,422.61908,382.78976,422.93057,382.78976C423.07214,382.78976,423.78003,383.17203,424.48788,383.65335 Z M406.96075,390.42065C406.96075,390.56226,407.13065,390.78882,407.32886,390.93036C407.79605,391.22766,409.3534,394.399,409.29678,394.937C409.28262,395.1493,409.09857,395.98462,408.90036,396.8058C408.70215,397.62695,408.419,398.802,408.2916,399.42493C408.16415,400.04785,408.00842,400.65662,407.93765,400.7699C407.73944,401.16632,406.23874,405.97992,405.67242,408.0611C404.83713,411.1333,404.76633,411.23242,403.9027,410.29797C403.42136,409.78833,403.39304,409.7317,403.478,408.98132C403.5771,408.03278,403.74698,407.15503,404.03015,406.22058C404.18588,405.6543,404.4407,405.30035,405.37512,404.38013C406.46524,403.28998,406.50772,403.20502,406.6068,402.4264C406.73425,401.46362,406.45108,396.8341,406.23874,396.0271C406.13962,395.71564,406.06885,394.66797,406.0547,393.6911C406.04053,392.11963,406.1113,391.53918,406.4794,390.3216C406.56436,390.0526,406.96075,390.1234,406.96075,390.42065 Z"/> </g> </g> </svg>